<?xml version="1.0" encoding="utf-8"?>
<!-- Generator: Adobe Illustrator 19.2.0, SVG Export Plug-In . SVG Version: 6.00 Build 0)  -->
<svg version="1.1" id="Layer_1" xmlns="http://www.w3.org/2000/svg" xmlns:xlink="http://www.w3.org/1999/xlink" x="0px" y="0px"
	 viewBox="0 0 250 250" style="enable-background:new 0 0 250 250;" xml:space="preserve">
<style type="text/css">
	.st0{fill:#27C8CC;}
	.st1{fill:#FFEA1D;stroke:#FFEA1D;stroke-width:5;stroke-miterlimit:10;}
</style>
<rect y="0" class="st0" width="250" height="250"/>
<path class="st1" d="M77.2,193.6L77.2,193.6c4.9,0.9,9.6-2.4,10.4-7.2L111.4,55c0.9-4.9-2.4-9.6-7.2-10.4h0
	c-4.9-0.9-9.6,2.4-10.4,7.2L69.9,183.1C69,188,72.3,192.7,77.2,193.6z"/>
<path class="st1" d="M141.2,195.6L141.2,195.6c4.9,0.9,9.6-2.4,10.4-7.2L175.4,57c0.9-4.9-2.4-9.6-7.2-10.4h0
	c-4.9-0.9-9.6,2.4-10.4,7.2l-23.8,131.4C133,190,136.3,194.7,141.2,195.6z"/>
<path class="st1" d="M49,91.8L49,91.8c0,4.9,4.1,9,9.1,8.9l133.5-1c4.9,0,9-4.1,8.9-9.1v0c0-4.9-4.1-9-9.1-8.9l-133.5,1
	C53,82.8,48.9,86.8,49,91.8z"/>
<path class="st1" d="M42.9,148.4L42.9,148.4c0,4.9,4.1,9,9.1,8.9l133.5-1c4.9,0,9-4.1,8.9-9.1v0c0-4.9-4.1-9-9.1-8.9l-133.5,1
	C46.9,139.4,42.9,143.5,42.9,148.4z"/>
</svg>
