<?xml version="1.0" encoding="utf-8"?>
<!-- Generator: Adobe Illustrator 19.1.0, SVG Export Plug-In . SVG Version: 6.00 Build 0)  -->
<svg version="1.1" xmlns="http://www.w3.org/2000/svg" xmlns:xlink="http://www.w3.org/1999/xlink" x="0px" y="0px"
	 viewBox="0 0 250 250" style="enable-background:new 0 0 250 250;" xml:space="preserve">
<style type="text/css">
	.st0{fill:#3FFF27;}
	.st1{fill:#27C8CC;}
	.st2{fill:none;stroke:#27C8CC;stroke-width:23;stroke-miterlimit:10;}
	.st3{fill:none;stroke:#27C8CC;stroke-width:9;stroke-miterlimit:10;}
</style>
<g id="Layer_2">
	<rect x="0" class="st0" width="250" height="250"/>
	<g>
		<g>
			<path class="st1" d="M112.7,145c1.9,0,1.9-3,0-3C110.8,142,110.8,145,112.7,145L112.7,145z"/>
		</g>
	</g>
	<g>
		<g>
			<path class="st1" d="M97.5,106.9c1.9,0,1.9-3,0-3C95.5,103.9,95.5,106.9,97.5,106.9L97.5,106.9z"/>
		</g>
	</g>
	<g>
		<g>
			<path class="st1" d="M107,113.9c0,7.4,0.8,14.6,2.5,21.8c0.4,1.9,3.3,1.1,2.9-0.8c-1.6-6.9-2.4-13.9-2.4-21
				C110,112,107,112,107,113.9L107,113.9z"/>
		</g>
	</g>
	<g>
		<g>
			<path class="st1" d="M98,118.8c-0.1,7.9,1,15.8,3.2,23.4c2.1,7.3,13.6,4.2,11.5-3.2c-1.9-6.7-2.8-13.3-2.7-20.2
				C110,111.2,98.1,111.2,98,118.8L98,118.8z"/>
		</g>
	</g>
	<g>
		<g>
			<path class="st1" d="M92.8,106.9c-0.8,13.6,6.1,25.2,12.6,36.7c3.2,5.7,6,11.4,7.5,17.9c1.6,7.2,1.6,14.7,1.7,22.1
				c0.1,7.7,12,7.7,11.9,0c-0.2-14-1.2-27.2-7.5-39.9c-5.8-11.8-15-22.8-14.2-36.7C105.2,99.2,93.3,99.2,92.8,106.9L92.8,106.9z"/>
		</g>
	</g>
	<g>
		<g>
			<path class="st1" d="M98.3,110.2c-0.9,11.1,5.8,19.7,12.5,27.8c7,8.6,11.4,18.3,9.6,29.6c-1.2,7.5,10.3,10.7,11.5,3.2
				c1.8-11.1,0.2-22.3-5.7-32c-5.6-9.1-16.8-16.9-15.9-28.6C110.8,102.6,98.9,102.6,98.3,110.2L98.3,110.2z"/>
		</g>
	</g>
	<g>
		<g>
			<path class="st1" d="M135,108.2c-0.6,3.4-2.2,6.3-3.4,9.4c-1.4,3.7-2.1,7.4-2.8,11.3c-1.5,8.3-2.9,16.7-4.3,25
				c-1.3,7.5,10.2,10.7,11.5,3.2c1.4-8.3,2.9-16.7,4.3-25c0.6-3.6,1.2-7.2,2.5-10.6c1.3-3.4,3-6.5,3.7-10.1
				C147.9,103.9,136.4,100.6,135,108.2L135,108.2z"/>
		</g>
	</g>
	<g>
		<g>
			<path class="st1" d="M103.9,113.1c2.1,5.4,4.4,10.4,8.1,15c3.5,4.3,7.9,7.9,12.2,11.4c5.9,4.8,14.4-3.6,8.4-8.4
				c-7.5-6.1-13.7-12-17.3-21.2C112.6,102.9,101.1,106,103.9,113.1L103.9,113.1z"/>
		</g>
	</g>
	<g>
		<g>
			<path class="st1" d="M112.7,116.7c4.6,4.2,9.4,8.1,14.5,11.6c2.7,1.8,6.6,0.5,8.1-2.1c1.7-2.9,0.5-6.3-2.1-8.1
				c-4.3-2.9-8.3-6.2-12.1-9.7C115.5,103.1,107.1,111.5,112.7,116.7L112.7,116.7z"/>
		</g>
	</g>
	<g>
		<g>
			<path class="st1" d="M131.2,120.7c7.7,0,7.7-11.9,0-11.9C123.5,108.8,123.5,120.7,131.2,120.7L131.2,120.7z"/>
		</g>
	</g>
	<g>
		<g>
			<path class="st1" d="M146.4,113.7c7.7,0,7.7-11.9,0-11.9C138.8,101.8,138.7,113.7,146.4,113.7L146.4,113.7z"/>
		</g>
	</g>
</g>
<g id="Layer_1">
	<g id="Layer_3">
		<circle class="st2" cx="122.3" cy="72.5" r="31.6"/>
		<line class="st3" x1="85.4" y1="82.7" x2="120.9" y2="203.5"/>
		<line class="st3" x1="159.7" y1="82.7" x2="120.9" y2="203.5"/>
		<polygon class="st1" points="128.2,194.5 121,220.9 113.8,194.5 		"/>
	</g>
</g>
</svg>
